<?xml version="1.0" encoding="utf-8"?>
<!-- Generator: Adobe Illustrator 23.1.0, SVG Export Plug-In . SVG Version: 6.00 Build 0)  -->
<svg version="1.1" id="Capa_1" xmlns="http://www.w3.org/2000/svg" xmlns:xlink="http://www.w3.org/1999/xlink" x="0px" y="0px"
	 viewBox="0 0 512 512" style="enable-background:new 0 0 512 512;" xml:space="preserve">
<style type="text/css">
	.st0{fill:none;stroke:#132B3F;stroke-width:12.4097;stroke-miterlimit:10;}
	.st1{fill:#132B3F;}
</style>
<path class="st0" d="M408,333.5c0,0,63,19.3,68.1,62.7c0,48.8-101.3,88.4-226.3,88.4S23.6,445,23.6,396.2c2.6-45.3,81-69.1,81-69.1"
	/>
<g>
	<path class="st1" d="M182.6,136.7c0-23.9-18.8-43.4-42-43.4s-42,19.4-42,43.4s18.8,43.4,42,43.4S182.6,160.6,182.6,136.7z
		 M140.6,158.4c-11.6,0-21-9.7-21-21.7c0-12,9.4-21.7,21-21.7c11.6,0,21,9.7,21,21.7C161.6,148.7,152.2,158.4,140.6,158.4z"/>
	<path class="st1" d="M413.3,136.7c0-23.9-18.8-43.4-42-43.4s-42,19.4-42,43.4s18.8,43.4,42,43.4S413.3,160.6,413.3,136.7z
		 M371.4,158.4c-11.6,0-21-9.7-21-21.7c0-12,9.4-21.7,21-21.7s21,9.7,21,21.7C392.3,148.7,382.9,158.4,371.4,158.4z"/>
	<path class="st1" d="M371.4,180.1c-19.4,0-36.7,9.1-48.3,23.4c-11.5-26.5-37.2-45.1-67.1-45.1s-55.6,18.5-67.1,45.1
		c-11.6-14.3-28.9-23.4-48.3-23.4c-34.9,0-63.6,29.2-63.6,65v54.2c0,6,4.7,10.8,10.5,10.8H99l9.6,100.1c0.5,5.5,5,9.8,10.4,9.8h42.7
		c5.4,0,9.9-4.2,10.4-9.8l9.6-100.1h35l7.9,99.9c0.4,5.6,5,9.9,10.5,9.9h42c5.5,0,10-4.3,10.5-9.9l7.9-99.9h35l9.6,100.1
		c0.5,5.5,5,9.8,10.4,9.8H393c5.4,0,9.9-4.2,10.4-9.8l9.6-100.1h11.5c5.8,0,10.5-4.9,10.5-10.8v-54.2
		C435,209.3,406.3,180.1,371.4,180.1z M172.1,288.5c-5.4,0-9.9,4.2-10.4,9.8l-9.6,100.1h-23.6l-9.6-100.1c-0.5-5.5-5-9.8-10.4-9.8
		H98v-43.4c0-23.9,19.1-43.4,42.7-43.4c23.1,0,42,19.4,42,43.4v43.4L172.1,288.5z M285.7,288.5c-5.5,0-10,4.3-10.5,9.9l-7.9,99.9
		h-22.6l-7.9-99.9c-0.4-5.6-5-9.9-10.5-9.9h-22.7v-54.2c0-26.2,18-48.1,42-53.1v53.1c0,6,4.7,10.8,10.5,10.8
		c5.8,0,10.5-4.9,10.5-10.8v-53.1c23.9,5,42,26.9,42,53.1v54.2H285.7z M414,288.5h-10.5c-5.4,0-9.9,4.2-10.4,9.8l-9.6,100.1h-23.6
		l-9.6-100.1c-0.5-5.5-5-9.8-10.4-9.8h-10.5v-43.4c0-23.9,18.8-43.4,42-43.4c23.5,0,42.7,19.4,42.7,43.4L414,288.5z"/>
	<path class="st1" d="M308.4,104.2c0-29.9-23.5-54.2-52.4-54.2s-52.4,24.3-52.4,54.2s23.5,54.2,52.4,54.2S308.4,134.1,308.4,104.2z
		 M256,136.7c-17.3,0-31.5-14.6-31.5-32.5s14.1-32.5,31.5-32.5s31.5,14.6,31.5,32.5S273.3,136.7,256,136.7z"/>
</g>
</svg>
