<?xml version="1.0" encoding="utf-8"?>
<!-- Generator: Adobe Illustrator 23.1.0, SVG Export Plug-In . SVG Version: 6.00 Build 0)  -->
<svg version="1.1" id="Layer_1" xmlns="http://www.w3.org/2000/svg" xmlns:xlink="http://www.w3.org/1999/xlink" x="0px" y="0px"
	 viewBox="0 0 1440 1864" style="enable-background:new 0 0 1440 1864;" xml:space="preserve">
<style type="text/css">
	.st0{opacity:0.3;enable-background:new    ;}
	.st1{opacity:0.1;fill:url(#Path-5_1_);enable-background:new    ;}
	.st2{opacity:0.2;fill:url(#Path-5-Copy_1_);enable-background:new    ;}
	.st3{opacity:0.1;fill:url(#Path-5-Copy-4_1_);enable-background:new    ;}
	.st4{opacity:0.2;fill:url(#Path-5-Copy-3_2_);enable-background:new    ;}
	.st5{opacity:0.2;fill:url(#Path-5-Copy-3_3_);enable-background:new    ;}
	.st6{opacity:0.2;fill:url(#Path-5-Copy-9_1_);enable-background:new    ;}
	.st7{opacity:0.1;fill:url(#Path-5-Copy-5_1_);enable-background:new    ;}
	.st8{opacity:0.2;fill:url(#Path-5-Copy-2_1_);enable-background:new    ;}
	.st9{opacity:0.2;fill:url(#Path-5-Copy-6_1_);enable-background:new    ;}
	.st10{opacity:0.3;fill:url(#SVGID_1_);enable-background:new    ;}
	.st11{opacity:0.23;fill:url(#Path-5-Copy-10_1_);enable-background:new    ;}
	.st12{opacity:0.1;fill:url(#SVGID_2_);enable-background:new    ;}
	.st13{opacity:0.1;fill:url(#SVGID_3_);enable-background:new    ;}
	.st14{opacity:0.23;fill:url(#SVGID_4_);enable-background:new    ;}
	.st15{opacity:0.23;fill:url(#Path-5-Copy-7_1_);enable-background:new    ;}
</style>
<title>Group 59</title>
<desc>Created with Sketch.</desc>
<g class="st0">
	<g transform="translate(0.000000, -849.000000)">
		<g id="BG" transform="translate(-400.000000, 832.000000)">
			<g id="Group-59" transform="translate(131.000000, 0.000000)">
				
					<linearGradient id="Path-5_1_" gradientUnits="userSpaceOnUse" x1="689.0262" y1="1374.3676" x2="689.816" y2="1372.9069" gradientTransform="matrix(226.689 11.8803 4.6056 -87.8795 -161312.1719 113146.1641)">
					<stop  offset="0" style="stop-color:#007BCE"/>
					<stop  offset="1" style="stop-color:#0074FF"/>
				</linearGradient>
				<path id="Path-5" class="st1" d="M1253.5,693.6c-13.6,2.2-26.4-7-28.6-20.6c-2.2-13.6,7-26.3,20.6-28.5l178.8-28.9
					c13.6-2.2,26.4,7,28.6,20.6c2.2,13.6-7,26.3-20.6,28.5L1253.5,693.6z"/>
				
					<linearGradient id="Path-5-Copy_1_" gradientUnits="userSpaceOnUse" x1="688.9453" y1="1375.0004" x2="689.7352" y2="1373.5397" gradientTransform="matrix(226.689 11.8803 4.6056 -87.8794 -160967.1563 112871.0391)">
					<stop  offset="0" style="stop-color:#007BCE"/>
					<stop  offset="1" style="stop-color:#0074FF"/>
				</linearGradient>
				<path id="Path-5-Copy" class="st2" d="M1583.1,362c-13.6,2.2-26.4-7-28.6-20.6c-2.2-13.6,7-26.3,20.6-28.5l178.8-28.9
					c13.6-2.2,26.4,7,28.6,20.6c2.2,13.6-7,26.3-20.6,28.5L1583.1,362z"/>
				
					<linearGradient id="Path-5-Copy-4_1_" gradientUnits="userSpaceOnUse" x1="688.9453" y1="1375.0004" x2="689.7352" y2="1373.5397" gradientTransform="matrix(226.6888 11.8803 4.6056 -87.8794 -161813.0313 112844.0703)">
					<stop  offset="0" style="stop-color:#007BCE"/>
					<stop  offset="1" style="stop-color:#0074FF"/>
				</linearGradient>
				<path id="Path-5-Copy-4" class="st3" d="M737.1,335c-13.6,2.2-26.4-7-28.6-20.6c-2.2-13.6,7-26.3,20.6-28.5L907.9,257
					c13.6-2.2,26.4,7,28.6,20.6c2.2,13.6-7,26.3-20.6,28.5L737.1,335z"/>
				
					<linearGradient id="Path-5-Copy-3_2_" gradientUnits="userSpaceOnUse" x1="688.9453" y1="1375.0004" x2="689.7352" y2="1373.5397" gradientTransform="matrix(226.6889 11.8803 4.6056 -87.8795 -161606.0781 113510.1719)">
					<stop  offset="0" style="stop-color:#007BCE"/>
					<stop  offset="1" style="stop-color:#0074FF"/>
				</linearGradient>
				<path id="Path-5-Copy-3" class="st4" d="M944.1,1001c-13.6,2.2-26.4-7-28.6-20.6s7-26.3,20.6-28.5l178.8-28.9
					c13.6-2.2,26.4,7,28.6,20.6c2.2,13.6-7,26.3-20.6,28.5L944.1,1001z"/>
				
					<linearGradient id="Path-5-Copy-3_3_" gradientUnits="userSpaceOnUse" x1="685.2551" y1="1372.6439" x2="686.045" y2="1371.1832" gradientTransform="matrix(174.9853 -144.5999 -56.0564 -67.8358 -42842.1016 193386.1719)">
					<stop  offset="0" style="stop-color:#007BCE"/>
					<stop  offset="1" style="stop-color:#0074FF"/>
				</linearGradient>
				<path id="Path-5-Copy-3_1_" class="st5" d="M247.3,1259.4c-8.5,10.8-24.2,12.7-35,4.2c-10.8-8.5-12.6-24.1-4.1-35l112.1-142.3
					c8.5-10.8,24.2-12.7,35-4.2c10.8,8.5,12.6,24.1,4.1,35L247.3,1259.4z"/>
				
					<linearGradient id="Path-5-Copy-9_1_" gradientUnits="userSpaceOnUse" x1="686.551" y1="1377.4434" x2="687.3409" y2="1375.9827" gradientTransform="matrix(135.8136 7.1177 2.7738 -52.9272 -96800.75 69367.7266)">
					<stop  offset="0" style="stop-color:#007BCE"/>
					<stop  offset="1" style="stop-color:#0074FF"/>
				</linearGradient>
				<path id="Path-5-Copy-9" class="st6" d="M287.7,1434.6c-8.1,1.3-15.8-4.2-17.2-12.4s4.2-15.9,12.4-17.2l107.2-17.4
					c8.1-1.3,15.8,4.2,17.2,12.4c1.3,8.2-4.2,15.9-12.4,17.2L287.7,1434.6z"/>
				
					<linearGradient id="Path-5-Copy-5_1_" gradientUnits="userSpaceOnUse" x1="688.9453" y1="1375.0004" x2="689.7352" y2="1373.5397" gradientTransform="matrix(226.689 11.8803 4.6056 -87.8793 -160926.1563 113663.9141)">
					<stop  offset="0" style="stop-color:#007BCE"/>
					<stop  offset="1" style="stop-color:#0074FF"/>
				</linearGradient>
				<path id="Path-5-Copy-5" class="st7" d="M1624.1,1155c-13.6,2.2-26.4-7-28.6-20.6c-2.2-13.6,7-26.3,20.6-28.5l178.8-28.9
					c13.6-2.2,26.4,7,28.6,20.6c2.2,13.6-7,26.3-20.6,28.5L1624.1,1155z"/>
				
					<linearGradient id="Path-5-Copy-2_1_" gradientUnits="userSpaceOnUse" x1="689.7937" y1="1372.9004" x2="690.5836" y2="1371.4397" gradientTransform="matrix(526.2777 27.581 10.6765 -203.7205 -377840.1875 261126.7813)">
					<stop  offset="0" style="stop-color:#007BCE"/>
					<stop  offset="1" style="stop-color:#0074FF"/>
				</linearGradient>
				<path id="Path-5-Copy-2" class="st8" d="M-63.5,789.3c-31.6,5.1-61.3-16.3-66.5-47.7c-5.1-31.4,16.3-61.1,47.9-66.1l415.2-67
					c31.6-5.1,61.3,16.3,66.5,47.7s-16.3,61.1-47.9,66.1L-63.5,789.3z"/>
				
					<linearGradient id="Path-5-Copy-6_1_" gradientUnits="userSpaceOnUse" x1="689.705" y1="1372.8708" x2="690.4948" y2="1371.4103" gradientTransform="matrix(368.4942 19.312 7.484 -142.8041 -262839.3125 184384.0313)">
					<stop  offset="0" style="stop-color:#007BCE"/>
					<stop  offset="1" style="stop-color:#0074FF"/>
				</linearGradient>
				<path id="Path-5-Copy-6" class="st9" d="M1654.6,1879.9c-22.1,3.6-42.9-11.4-46.5-33.4c-3.6-22,11.4-42.8,33.5-46.4l290.7-47
					c22.1-3.6,42.9,11.4,46.5,33.4c3.6,22-11.4,42.8-33.5,46.4L1654.6,1879.9z"/>
				
					<linearGradient id="SVGID_1_" gradientUnits="userSpaceOnUse" x1="689.6018" y1="1371.7765" x2="689.9429" y2="1373.4149" gradientTransform="matrix(256.6478 13.4503 6.1756 -117.8383 -185232.125 152786.8594)">
					<stop  offset="0" style="stop-color:#007BCE"/>
					<stop  offset="1" style="stop-color:#0074FF"/>
				</linearGradient>
				<path class="st10" d="M185.5,382.8c-21.8,3.5-42.3-11.2-45.8-33c-3.5-21.7,11.2-42.2,33-45.7l178.9-29
					c21.8-3.5,42.3,11.2,45.8,33c3.5,21.7-11.2,42.2-33,45.7L185.5,382.8z"/>
				
					<linearGradient id="Path-5-Copy-10_1_" gradientUnits="userSpaceOnUse" x1="689.4339" y1="1374.8896" x2="689.8019" y2="1375.9703" gradientTransform="matrix(238.6723 12.5083 3.6112 -68.9056 -168072.9219 87591.6953)">
					<stop  offset="0" style="stop-color:#007BCE"/>
					<stop  offset="1" style="stop-color:#0074FF"/>
				</linearGradient>
				<path id="Path-5-Copy-10" class="st11" d="M1380.1,1470.1c-5.7,0.9-11.1-2.9-12.1-8.7c-0.9-5.8,2.9-11.2,8.7-12.1l220.2-36.4
					c5.7-0.9,11.1,2.9,12.1,8.7c0.9,5.8-2.9,11.2-8.7,12.1L1380.1,1470.1z"/>
				
					<linearGradient id="SVGID_2_" gradientUnits="userSpaceOnUse" x1="689.2532" y1="1372.4949" x2="692.0906" y2="1375.1316" gradientTransform="matrix(340.5328 17.8466 5.1289 -97.8657 -240571.2813 122145.5234)">
					<stop  offset="0" style="stop-color:#007BCE"/>
					<stop  offset="1" style="stop-color:#0074FF"/>
				</linearGradient>
				<path class="st12" d="M1348.9,98.6c-8.2,1.3-15.9-4.2-17.2-12.4s4.2-15.9,12.4-17.2l314.1-51.6c8.2-1.3,15.9,4.2,17.2,12.4
					s-4.2,15.9-12.4,17.2L1348.9,98.6z"/>
				<linearGradient id="SVGID_3_" gradientUnits="userSpaceOnUse" x1="538" y1="610" x2="628" y2="610">
					<stop  offset="0" style="stop-color:#007BCE"/>
					<stop  offset="1" style="stop-color:#0074FF"/>
				</linearGradient>
				<path class="st13" d="M538,618l90-16"/>
				
					<linearGradient id="SVGID_4_" gradientUnits="userSpaceOnUse" x1="689.9948" y1="1372.8002" x2="690.3627" y2="1373.8809" gradientTransform="matrix(340.5328 17.8466 5.1289 -97.8658 -240327.2969 122941.6172)">
					<stop  offset="0" style="stop-color:#007BCE"/>
					<stop  offset="1" style="stop-color:#0074FF"/>
				</linearGradient>
				<path class="st14" d="M1592.9,894.6c-8.2,1.3-15.9-4.2-17.2-12.4c-1.3-8.2,4.2-15.9,12.4-17.2l314.1-51.6
					c8.2-1.3,15.9,4.2,17.2,12.4c1.3,8.2-4.2,15.9-12.4,17.2L1592.9,894.6z"/>
				
					<linearGradient id="Path-5-Copy-7_1_" gradientUnits="userSpaceOnUse" x1="689.9947" y1="1372.8002" x2="690.3627" y2="1373.8809" gradientTransform="matrix(340.5327 17.8466 5.1289 -97.8656 -241828.2031 123812.3672)">
					<stop  offset="0" style="stop-color:#007BCE"/>
					<stop  offset="1" style="stop-color:#0074FF"/>
				</linearGradient>
				<path id="Path-5-Copy-7" class="st15" d="M91.9,1765.6c-8.2,1.3-15.9-4.2-17.2-12.4s4.2-15.9,12.4-17.2l314.1-51.6
					c8.2-1.3,15.9,4.2,17.2,12.4c1.3,8.2-4.2,15.9-12.4,17.2L91.9,1765.6z"/>
			</g>
		</g>
	</g>
</g>
</svg>
