<?xml version="1.0" encoding="utf-8"?>
<!-- Generator: Adobe Illustrator 23.1.0, SVG Export Plug-In . SVG Version: 6.00 Build 0)  -->
<svg version="1.1" id="Layer_1" xmlns="http://www.w3.org/2000/svg" xmlns:xlink="http://www.w3.org/1999/xlink" x="0px" y="0px"
	 viewBox="0 0 1440 1953" style="enable-background:new 0 0 1440 1953;" xml:space="preserve">
<style type="text/css">
	.st0{opacity:0.5;}
	.st1{opacity:8.000000e-02;fill-rule:evenodd;clip-rule:evenodd;fill:url(#Rectangle-20_1_);enable-background:new    ;}
	.st2{opacity:0.3;fill:url(#Rectangle-5-Copy-6_1_);enable-background:new    ;}
	.st3{opacity:0.2;fill:url(#Rectangle-5-Copy-7_1_);enable-background:new    ;}
	.st4{opacity:0.2;fill:url(#Rectangle-5_1_);enable-background:new    ;}
	.st5{opacity:0.1;fill:url(#Rectangle-5-Copy-2_1_);enable-background:new    ;}
	.st6{opacity:0.1;fill:url(#Rectangle-5-Copy-4_1_);enable-background:new    ;}
	.st7{opacity:0.14;fill:url(#Rectangle-5-Copy-5_1_);enable-background:new    ;}
	.st8{opacity:0.3;fill:url(#SVGID_1_);enable-background:new    ;}
	.st9{opacity:0.3;fill:url(#Rectangle-5-Copy-3_1_);enable-background:new    ;}
</style>
<title>BG</title>
<desc>Created with Sketch.</desc>
<g class="st0">
	<g transform="translate(0.000000, -922.000000)">
		<g id="BG" transform="translate(-832.000000, 928.000000)">
			<linearGradient id="Rectangle-20_1_" gradientUnits="userSpaceOnUse" x1="0.4995" y1="1324.8239" x2="2040.5885" y2="1324.8239">
				<stop  offset="0" style="stop-color:#007BCE"/>
				<stop  offset="1" style="stop-color:#0074FF"/>
			</linearGradient>
			<path id="Rectangle-20" class="st1" d="M172.8,754l1730.1,699c112.7,45.5,167.1,173.7,121.6,286.4l-7.5,18.5
				c-45.5,112.7-173.7,167.1-286.4,121.6L0.5,1180.5L172.8,754z"/>
			
				<linearGradient id="Rectangle-5-Copy-6_1_" gradientUnits="userSpaceOnUse" x1="2050.2844" y1="1095.8751" x2="2177.9656" y2="1095.8751">
				<stop  offset="0" style="stop-color:#007BCE"/>
				<stop  offset="1" style="stop-color:#0074FF"/>
			</linearGradient>
			<path id="Rectangle-5-Copy-6" class="st2" d="M2128.3,1037.9l43.8,43.8c7.8,7.8,7.8,20.5,0,28.3l-43.8,43.8
				c-7.8,7.8-20.5,7.8-28.3,0l-43.8-43.8c-7.8-7.8-7.8-20.5,0-28.3l43.8-43.8C2107.8,1030.1,2120.5,1030.1,2128.3,1037.9z"/>
			
				<linearGradient id="Rectangle-5-Copy-7_1_" gradientUnits="userSpaceOnUse" x1="934.2843" y1="1687.7695" x2="995.397" y2="1687.7695">
				<stop  offset="0" style="stop-color:#007BCE"/>
				<stop  offset="1" style="stop-color:#0074FF"/>
			</linearGradient>
			<path id="Rectangle-5-Copy-7" class="st3" d="M975.4,1661.6l15.6,15.6c5.9,5.9,5.9,15.4,0,21.2l-15.6,15.6
				c-5.9,5.9-15.4,5.9-21.2,0l-15.6-15.6c-5.9-5.9-5.9-15.4,0-21.2l15.6-15.6C960.1,1655.7,969.6,1655.7,975.4,1661.6z"/>
			<linearGradient id="Rectangle-5_1_" gradientUnits="userSpaceOnUse" x1="733.5736" y1="604.4802" x2="910.4264" y2="604.4802">
				<stop  offset="0" style="stop-color:#007BCE"/>
				<stop  offset="1" style="stop-color:#0074FF"/>
			</linearGradient>
			<path id="Rectangle-5" class="st4" d="M854.5,529.5L897,572c18,18,18,47.1,0,65.1l-42.4,42.4c-18,18-47.1,18-65.1,0L747,637
				c-18-18-18-47.1,0-65.1l42.4-42.4C807.4,511.6,836.6,511.6,854.5,529.5z"/>
			
				<linearGradient id="Rectangle-5-Copy-2_1_" gradientUnits="userSpaceOnUse" x1="2200.3379" y1="492.9533" x2="2323.5691" y2="492.9533">
				<stop  offset="0" style="stop-color:#007BCE"/>
				<stop  offset="1" style="stop-color:#0074FF"/>
			</linearGradient>
			<path id="Rectangle-5-Copy-2" class="st5" d="M2284.7,440.8l29.4,29.4c12.6,12.6,12.6,33,0,45.5l-29.4,29.4
				c-12.6,12.6-33,12.6-45.5,0l-29.4-29.4c-12.6-12.6-12.6-33,0-45.5l29.4-29.4C2251.8,428.2,2272.1,428.2,2284.7,440.8z"/>
			
				<linearGradient id="Rectangle-5-Copy-4_1_" gradientUnits="userSpaceOnUse" x1="941.3376" y1="74.9533" x2="1064.569" y2="74.9533">
				<stop  offset="0" style="stop-color:#007BCE"/>
				<stop  offset="1" style="stop-color:#0074FF"/>
			</linearGradient>
			<path id="Rectangle-5-Copy-4" class="st6" d="M1025.7,22.8l29.4,29.4c12.6,12.6,12.6,33,0,45.5l-29.4,29.4
				c-12.6,12.6-33,12.6-45.5,0l-29.4-29.4c-12.6-12.6-12.6-33,0-45.5l29.4-29.4C992.8,10.2,1013.1,10.2,1025.7,22.8z"/>
			
				<linearGradient id="Rectangle-5-Copy-5_1_" gradientUnits="userSpaceOnUse" x1="1958.3376" y1="222.9999" x2="2081.5691" y2="222.9999">
				<stop  offset="0" style="stop-color:#007BCE"/>
				<stop  offset="1" style="stop-color:#0074FF"/>
			</linearGradient>
			<path id="Rectangle-5-Copy-5" class="st7" d="M2042.7,170.8l29.4,29.4c12.6,12.6,12.6,33,0,45.5l-29.4,29.4
				c-12.6,12.6-33,12.6-45.5,0l-29.4-29.4c-12.6-12.6-12.6-33,0-45.5l29.4-29.4C2009.8,158.2,2030.1,158.2,2042.7,170.8z"/>
			<linearGradient id="SVGID_1_" gradientUnits="userSpaceOnUse" x1="745.1245" y1="1845.1665" x2="910.7822" y2="1845.1665">
				<stop  offset="0" style="stop-color:#007BCE"/>
				<stop  offset="1" style="stop-color:#0074FF"/>
			</linearGradient>
			<path class="st8" d="M850.7,1771.8l50.6,50.6c12.6,12.6,12.6,33,0,45.5l-50.6,50.6c-12.6,12.6-33,12.6-45.5,0l-50.6-50.6
				c-12.6-12.6-12.6-33,0-45.5l50.6-50.6C817.8,1759.2,838.1,1759.2,850.7,1771.8z"/>
			
				<linearGradient id="Rectangle-5-Copy-3_1_" gradientUnits="userSpaceOnUse" x1="1166.4437" y1="325.8578" x2="1217.5564" y2="325.8578">
				<stop  offset="0" style="stop-color:#007BCE"/>
				<stop  offset="1" style="stop-color:#0074FF"/>
			</linearGradient>
			<path id="Rectangle-5-Copy-3" class="st9" d="M1199.1,303.2l15.6,15.6c3.9,3.9,3.9,10.2,0,14.1l-15.6,15.6
				c-3.9,3.9-10.2,3.9-14.1,0l-15.6-15.6c-3.9-3.9-3.9-10.2,0-14.1l15.6-15.6C1188.8,299.3,1195.2,299.3,1199.1,303.2z"/>
		</g>
	</g>
</g>
</svg>
