<?xml version="1.0" encoding="utf-8"?>
<!-- Generator: Adobe Illustrator 23.1.0, SVG Export Plug-In . SVG Version: 6.00 Build 0)  -->
<svg version="1.1" id="Layer_1" xmlns="http://www.w3.org/2000/svg" xmlns:xlink="http://www.w3.org/1999/xlink" x="0px" y="0px"
	 viewBox="0 0 56 56" style="enable-background:new 0 0 56 56;" xml:space="preserve">
<style type="text/css">
	.st0{fill:#132B3F;}
</style>
<title>engineer</title>
<desc>Created with Sketch.</desc>
<g transform="translate(-827.000000, -2898.000000)">
	<g id="Services" transform="translate(160.000000, 2600.000000)">
		<g transform="translate(0.000000, 253.000000)">
			<g transform="translate(427.000000, 0.000000)">
				<g id="engineer" transform="translate(240.000000, 45.000000)">
					<g>
						<path id="Shape" class="st0" d="M35.2,47c1.5,0,2.7-1.2,2.7-2.7s-1.2-2.7-2.7-2.7c-1.2,0-2.2,0.8-2.5,1.8h-3.8v-5.4h3.8
							c0.4,1,1.4,1.8,2.5,1.8c1.5,0,2.7-1.2,2.7-2.7s-1.2-2.7-2.7-2.7c-1.2,0-2.2,0.8-2.5,1.8h-3.8v-5.4h3.8c0.4,1,1.4,1.8,2.5,1.8
							c1.5,0,2.7-1.2,2.7-2.7c0-1.5-1.2-2.7-2.7-2.7c-1.2,0-2.2,0.8-2.5,1.8h-3.8v-1.8h-1.8v-3.8c1-0.4,1.8-1.4,1.8-2.5
							c0-1.5-1.2-2.7-2.7-2.7c-1.5,0-2.7,1.2-2.7,2.7c0,1.2,0.8,2.2,1.8,2.5v3.8h-5.4v-3.8c1-0.4,1.8-1.4,1.8-2.5
							c0-1.5-1.2-2.7-2.7-2.7c-1.5,0-2.7,1.2-2.7,2.7c0,1.2,0.8,2.2,1.8,2.5v3.8h-5.4v-3.8c1-0.4,1.8-1.4,1.8-2.5
							c0-1.5-1.2-2.7-2.7-2.7S9,19.3,9,20.8c0,1.2,0.8,2.2,1.8,2.5v3.8H9v1.8H5.3c-0.4-1-1.4-1.8-2.5-1.8c-1.5,0-2.7,1.2-2.7,2.7
							c0,1.5,1.2,2.7,2.7,2.7c1.2,0,2.2-0.8,2.5-1.8H9v5.4H5.3c-0.4-1-1.4-1.8-2.5-1.8C1.2,34.3,0,35.5,0,37s1.2,2.7,2.7,2.7
							c1.2,0,2.2-0.8,2.5-1.8H9v5.4H5.3c-0.4-1-1.4-1.8-2.5-1.8c-1.5,0-2.7,1.2-2.7,2.7S1.2,47,2.7,47c1.2,0,2.2-0.8,2.5-1.8H9V47
							h1.8v3.8c-1,0.4-1.8,1.4-1.8,2.5c0,1.5,1.2,2.7,2.7,2.7s2.7-1.2,2.7-2.7c0-1.2-0.8-2.2-1.8-2.5V47h5.4v3.8
							c-1,0.4-1.8,1.4-1.8,2.5c0,1.5,1.2,2.7,2.7,2.7c1.5,0,2.7-1.2,2.7-2.7c0-1.2-0.8-2.2-1.8-2.5V47h5.4v3.8
							c-1,0.4-1.8,1.4-1.8,2.5c0,1.5,1.2,2.7,2.7,2.7c1.5,0,2.7-1.2,2.7-2.7c0-1.2-0.8-2.2-1.8-2.5V47h1.8v-1.8h3.8
							C33.1,46.2,34,47,35.2,47z M35.2,43.4c0.5,0,0.9,0.4,0.9,0.9s-0.4,0.9-0.9,0.9s-0.9-0.4-0.9-0.9S34.7,43.4,35.2,43.4z
							 M35.2,36.1c0.5,0,0.9,0.4,0.9,0.9s-0.4,0.9-0.9,0.9s-0.9-0.4-0.9-0.9S34.7,36.1,35.2,36.1z M35.2,28.9c0.5,0,0.9,0.4,0.9,0.9
							s-0.4,0.9-0.9,0.9s-0.9-0.4-0.9-0.9S34.7,28.9,35.2,28.9z M2.7,30.7c-0.5,0-0.9-0.4-0.9-0.9s0.4-0.9,0.9-0.9s0.9,0.4,0.9,0.9
							S3.2,30.7,2.7,30.7z M2.7,37.9c-0.5,0-0.9-0.4-0.9-0.9s0.4-0.9,0.9-0.9s0.9,0.4,0.9,0.9S3.2,37.9,2.7,37.9z M2.7,45.2
							c-0.5,0-0.9-0.4-0.9-0.9s0.4-0.9,0.9-0.9s0.9,0.4,0.9,0.9S3.2,45.2,2.7,45.2z M26.2,19.9c0.5,0,0.9,0.4,0.9,0.9
							c0,0.5-0.4,0.9-0.9,0.9s-0.9-0.4-0.9-0.9C25.3,20.3,25.7,19.9,26.2,19.9z M19,19.9c0.5,0,0.9,0.4,0.9,0.9
							c0,0.5-0.4,0.9-0.9,0.9c-0.5,0-0.9-0.4-0.9-0.9C18.1,20.3,18.5,19.9,19,19.9z M11.7,19.9c0.5,0,0.9,0.4,0.9,0.9
							c0,0.5-0.4,0.9-0.9,0.9c-0.5,0-0.9-0.4-0.9-0.9C10.8,20.3,11.2,19.9,11.7,19.9z M11.7,54.2c-0.5,0-0.9-0.4-0.9-0.9
							s0.4-0.9,0.9-0.9c0.5,0,0.9,0.4,0.9,0.9S12.2,54.2,11.7,54.2z M19,54.2c-0.5,0-0.9-0.4-0.9-0.9s0.4-0.9,0.9-0.9
							c0.5,0,0.9,0.4,0.9,0.9S19.5,54.2,19,54.2z M26.2,54.2c-0.5,0-0.9-0.4-0.9-0.9s0.4-0.9,0.9-0.9s0.9,0.4,0.9,0.9
							S26.7,54.2,26.2,54.2z M27.1,45.2H10.8V28.9h16.3V45.2z"/>
						<path class="st0" d="M51.9,14.5L51.9,14.5c-0.3-1.3-0.9-2.6-1.5-3.7l2.9-2.9l-5.1-5.1l-2.9,2.9c-1.2-0.7-2.4-1.2-3.7-1.5V0
							h-7.2v4.1c-1.3,0.3-2.6,0.9-3.7,1.5l-2.9-2.9l-5.1,5.1l2.9,2.9c-0.7,1.2-1.2,2.4-1.5,3.7h-3.2v1.8h4.6l0.1-0.7
							c0.3-1.6,0.9-3.1,1.8-4.4l0.4-0.6l-2.6-2.6l2.6-2.6l2.6,2.6L31,7.5c1.4-0.9,2.9-1.5,4.4-1.8l0.7-0.1V1.8h3.6v3.7l0.7,0.1
							C42,6,43.5,6.6,44.9,7.5l0.6,0.4l2.6-2.6l2.6,2.6l-2.6,2.6l0.4,0.6c0.9,1.4,1.5,2.9,1.8,4.4l0.1,0.7h3.7v3.6h-3.7l-0.1,0.7
							c-0.3,1.6-0.9,3.1-1.8,4.4l-0.4,0.6l2.6,2.6l-2.6,2.6l-2.6-2.6l-0.6,0.4c-1.4,0.9-2.9,1.5-4.4,1.8l-0.7,0.1v4.6h1.8v-3.2
							c1.3-0.3,2.6-0.9,3.7-1.5l2.9,2.9l5.1-5.1l-2.9-2.9c0.7-1.2,1.2-2.4,1.5-3.7H56v-7.2H51.9z"/>
						<path class="st0" d="M37.9,25.3v1.8c5,0,9-4.1,9-9s-4.1-9-9-9s-9,4.1-9,9h1.8c0-4,3.2-7.2,7.2-7.2s7.2,3.2,7.2,7.2
							S41.9,25.3,37.9,25.3z"/>
						<rect id="Rectangle-path" x="12.6" y="30.7" class="st0" width="12.6" height="1.8"/>
						<rect x="23.5" y="41.5" class="st0" width="1.8" height="1.8"/>
						<rect x="12.6" y="41.5" class="st0" width="9" height="1.8"/>
						<path class="st0" d="M33.2,53.7l0.4,1.8c11-2.2,19.6-10.8,21.8-21.8l-1.8-0.4C51.6,43.6,43.6,51.6,33.2,53.7z"/>
						<path class="st0" d="M22.8,2.3l-0.4-1.8C11.4,2.8,2.8,11.4,0.6,22.4l1.8,0.4C4.4,12.4,12.4,4.4,22.8,2.3z"/>
					</g>
				</g>
			</g>
		</g>
	</g>
</g>
</svg>
