<?xml version="1.0" encoding="utf-8"?>
<!-- Generator: Adobe Illustrator 23.1.0, SVG Export Plug-In . SVG Version: 6.00 Build 0)  -->
<svg version="1.1" id="Layer_1" xmlns="http://www.w3.org/2000/svg" xmlns:xlink="http://www.w3.org/1999/xlink" x="0px" y="0px"
	 viewBox="0 0 56 47" style="enable-background:new 0 0 56 47;" xml:space="preserve">
<style type="text/css">
	.st0{fill:none;}
	.st1{fill:#132B3F;}
</style>
<title>bars</title>
<desc>Created with Sketch.</desc>
<g id="bars" transform="translate(240.000000, 45.000000)">
	<rect id="Rectangle" x="-240" y="-50" class="st0" width="56" height="56"/>
	<g id="Shape" transform="translate(0.000000, 5.000000)">
		<path class="st1" d="M-193.6-50c-4.3,0-7.6,3.4-7.6,7.7s3.4,7.6,7.6,7.6s7.7-3.4,7.7-7.7S-189.3-50-193.6-50z M-193.6-36.4
			c-3.3,0-6-2.7-6-6c0-3.3,2.7-6,6-6c3.3,0,6,2.7,6,6S-190.2-36.4-193.6-36.4z"/>
		<path class="st1" d="M-191.1-41.2c-0.1-0.2-0.1-0.3-0.2-0.4c-0.1-0.1-0.1-0.3-0.2-0.4c-0.1-0.1-0.2-0.2-0.3-0.3
			c-0.1-0.1-0.2-0.2-0.4-0.3c-0.1-0.1-0.3-0.2-0.4-0.2c-0.2-0.1-0.3-0.2-0.4-0.2c-0.2-0.1-0.3-0.1-0.4-0.2c-0.1,0-0.2-0.1-0.2-0.1
			s-0.2-0.1-0.2-0.1s-0.2-0.1-0.2-0.1c-0.1-0.1-0.1-0.1-0.2-0.2c-0.1-0.1-0.1-0.1-0.1-0.2c-0.1-0.1-0.1-0.2-0.1-0.2
			c0-0.1,0-0.2,0-0.3c0-0.1,0.1-0.2,0.1-0.2c0.1-0.1,0.1-0.2,0.1-0.2c0.1-0.1,0.1-0.1,0.2-0.2c0.1-0.1,0.2-0.1,0.3-0.1
			c0.1-0.1,0.2-0.1,0.3-0.1c0.1,0,0.1,0,0.2,0s0.1,0,0.2,0c0.1,0,0.2,0,0.3,0.1c0.1,0,0.2,0.1,0.3,0.1c0.1,0,0.2,0.1,0.2,0.1
			c0.1,0,0.2,0.1,0.2,0.1l0.3,0.1l0.1-0.3l0.1-0.8V-46l-0.2-0.1c-0.1,0-0.2-0.1-0.2-0.1s-0.1-0.1-0.2-0.1c-0.1,0-0.2-0.1-0.3-0.1
			c-0.1,0-0.2-0.1-0.3-0.1h-0.1V-47v-0.3h-0.3h-0.7h-0.3v0.3v0.8h-0.1c-0.2,0.1-0.3,0.1-0.5,0.2c-0.2,0.1-0.3,0.2-0.4,0.3
			c-0.1,0.1-0.2,0.2-0.3,0.4c-0.1,0.1-0.2,0.3-0.2,0.4c-0.1,0.2-0.1,0.3-0.2,0.5c-0.1,0.2-0.1,0.4-0.1,0.5s0,0.3,0.1,0.4
			c0.1,0.2,0.1,0.3,0.2,0.4c0.1,0.1,0.2,0.3,0.2,0.4c0.1,0.1,0.2,0.2,0.3,0.3c0.1,0.1,0.2,0.2,0.4,0.3c0.1,0.1,0.3,0.2,0.4,0.2
			c0.2,0.1,0.3,0.2,0.4,0.2c0.2,0.1,0.3,0.1,0.4,0.2c0.1,0,0.2,0.1,0.2,0.1c0.1,0.1,0.2,0.1,0.2,0.1c0.1,0.1,0.1,0.1,0.2,0.1
			c0.1,0.1,0.1,0.1,0.2,0.2c0.1,0.1,0.1,0.1,0.1,0.2c0,0.1,0.1,0.2,0.1,0.3c0,0.1,0,0.2,0,0.3c0,0.1-0.1,0.2-0.1,0.2
			c-0.1,0.1-0.1,0.1-0.2,0.2c-0.1,0.1-0.1,0.1-0.2,0.2c-0.1,0.1-0.2,0.1-0.2,0.1c-0.1,0-0.2,0.1-0.3,0.1c-0.1,0-0.1,0-0.2,0
			c-0.1,0-0.2,0-0.2,0c-0.1,0-0.2,0-0.3,0c-0.1,0-0.2-0.1-0.3-0.1c-0.1,0-0.2-0.1-0.3-0.1c-0.1-0.1-0.2-0.1-0.3-0.1
			c-0.1,0-0.1-0.1-0.2-0.1s-0.1-0.1-0.2-0.1l-0.3-0.2l-0.1,0.4l-0.1,0.9v0.2l0.2,0.1c0.2-0.1,0.3,0,0.5,0.1c0.1,0.1,0.3,0.1,0.4,0.1
			c0.1,0.1,0.3,0.1,0.4,0.1c0.2,0.1,0.3,0.1,0.4,0.1h0.1v0.8v0.3h0.3h0.7h0.3v-0.3v-0.8h0.1c0.2-0.1,0.3-0.1,0.5-0.2
			c0.2-0.1,0.3-0.2,0.4-0.3c0.1-0.1,0.2-0.2,0.3-0.4c0.1-0.1,0.2-0.3,0.3-0.4c0.1-0.2,0.1-0.3,0.2-0.5c0.1-0.2,0.1-0.3,0.1-0.5
			C-191.1-40.9-191.1-41-191.1-41.2z"/>
		<path class="st1" d="M-197.3-33.7c-0.3-0.4-0.8-0.4-1.2-0.2L-207-27l-11-4.6c-0.3-0.1-0.6-0.1-0.8,0.1l-11.8,8.4
			c-0.4,0.3-0.5,0.8-0.2,1.2c0.2,0.3,0.4,0.4,0.7,0.4c0.2,0,0.3-0.1,0.5-0.2l11.4-8.2l11.1,4.6c0.3,0.1,0.6,0.1,0.8-0.1l8.9-7.1
			C-197-32.7-197-33.3-197.3-33.7z"/>
		<path class="st1" d="M-184.9-4.8h-3.9v-24.4c0-0.5-0.4-0.8-0.8-0.8h-7.7c-0.5,0-0.8,0.4-0.8,0.8v24.4h-2.8v-16
			c0-0.5-0.4-0.8-0.8-0.8h-7.8c-0.5,0-0.8,0.4-0.8,0.8v16h-2.8V-22c0-0.5-0.4-0.8-0.8-0.8h-7.7c-0.5,0-0.8,0.4-0.8,0.8v17.2h-2.8
			v-12.3c0-0.5-0.4-0.8-0.8-0.8h-7.8c-0.5,0-0.8,0.4-0.8,0.8v12.3h-4c-0.5,0-0.8,0.4-0.8,0.8s0.4,0.8,0.8,0.8h4.7h7.7h4.6h7.7h4.5
			h7.7h4.5h7.7h4.7c0.5,0,0.8-0.4,0.8-0.8C-184.1-4.4-184.4-4.8-184.9-4.8z M-227.5-4.8h-6.1v-11.4h6.1V-4.8z M-215.1-4.8h-6.1
			v-16.4h6.1V-4.8z M-202.8-4.8h-6.1v-15.1h6.1V-4.8z M-190.5-4.8h-6.1v-23.5h6.1V-4.8z"/>
	</g>
</g>
</svg>
