<?xml version="1.0" encoding="utf-8"?>
<!-- Generator: Adobe Illustrator 23.1.0, SVG Export Plug-In . SVG Version: 6.00 Build 0)  -->
<svg version="1.1" id="Layer_1" xmlns="http://www.w3.org/2000/svg" xmlns:xlink="http://www.w3.org/1999/xlink" x="0px" y="0px"
	 viewBox="0 0 56 56" style="enable-background:new 0 0 56 56;" xml:space="preserve">
<style type="text/css">
	.st0{fill:#132B3F;}
</style>
<title>line-graph</title>
<desc>Created with Sketch.</desc>
<g transform="translate(-827.000000, -3353.000000)">
	<g id="Services" transform="translate(160.000000, 2600.000000)">
		<g transform="translate(0.000000, 253.000000)">
			<g transform="translate(427.000000, 454.000000)">
				<g id="line-graph" transform="translate(240.000000, 46.000000)">
					<g id="Shape">
						<path class="st0" d="M54.9,51.1H6.7l6.1-6.8c0.5,0.3,1.1,0.4,1.8,0.4c1.5,0,2.8-0.9,3.4-2.1l6.2,1.6c0.2,2,1.8,3.5,3.8,3.5
							c2.1,0,3.8-1.7,3.8-3.8c0-1.2-0.5-2.2-1.3-2.9l5.1-12.2l3.6,9.2c-0.9,0.7-1.4,1.8-1.4,3c0,2.1,1.7,3.8,3.8,3.8
							s3.8-1.7,3.8-3.8c0-0.4-0.1-0.8-0.2-1.2l4.4-4.4c0.4-0.4,0.4-1.1,0-1.6c-0.4-0.4-1.1-0.4-1.6,0l-4.2,4.2
							c-0.6-0.5-1.4-0.8-2.3-0.8c-0.1,0-0.2,0-0.4,0l-4.4-11.4l4.5-10.7c0.1,0,0.2,0,0.3,0c1.8,0,3.3-1.2,3.7-2.9h7
							c0.6,0,1.1-0.5,1.1-1.1c0-0.6-0.5-1.1-1.1-1.1h-7.1c-0.5-1.5-1.9-2.6-3.6-2.6c-2.1,0-3.8,1.7-3.8,3.8c0,1.2,0.6,2.3,1.4,3
							l-3.6,8.5L30.4,9.5c0.8-0.7,1.3-1.7,1.3-2.9c0-2.1-1.7-3.8-3.8-3.8S24,4.5,24,6.7c0,0.9,0.3,1.8,0.9,2.4l-9.2,14
							c-0.4-0.1-0.8-0.2-1.3-0.2c-0.5,0-0.9,0.1-1.3,0.2L5.2,12.7V1.2c0-0.6-0.5-1.1-1.1-1.1S3,0.6,3,1.2v11H1.1
							c-0.6,0-1.1,0.5-1.1,1.1s0.5,1.1,1.1,1.1H3v11.3H1.1c-0.6,0-1.1,0.5-1.1,1.1S0.5,28,1.1,28H3v11.5H1.1C0.5,39.5,0,40,0,40.6
							s0.5,1.1,1.1,1.1H3v10.5c0,0.6,0.5,1.1,1.1,1.1h9.6v1.5c0,0.6,0.5,1.1,1.1,1.1c0.6,0,1.1-0.5,1.1-1.1v-1.5h11.2v1.5
							c0,0.6,0.5,1.1,1.1,1.1s1.1-0.5,1.1-1.1v-1.5h11.5v1.5c0,0.6,0.5,1.1,1.1,1.1c0.6,0,1.1-0.5,1.1-1.1v-1.5h11.8
							c0.6,0,1.1-0.5,1.1-1.1S55.5,51.1,54.9,51.1z M41.6,39.4c0.9,0,1.6,0.7,1.6,1.6c0,0.9-0.7,1.6-1.6,1.6c-0.9,0-1.6-0.7-1.6-1.6
							C40,40.1,40.7,39.4,41.6,39.4z M41.6,9.7c0.9,0,1.6,0.7,1.6,1.6s-0.7,1.6-1.6,1.6c-0.9,0-1.6-0.7-1.6-1.6S40.7,9.7,41.6,9.7z
							 M14.6,42.5c-0.9,0-1.6-0.7-1.6-1.6c0-0.9,0.7-1.6,1.6-1.6c0.9,0,1.6,0.7,1.6,1.6C16.2,41.8,15.4,42.5,14.6,42.5z M28,45.5
							c-0.9,0-1.6-0.7-1.6-1.6c0-0.9,0.7-1.6,1.6-1.6s1.6,0.7,1.6,1.6C29.6,44.8,28.9,45.5,28,45.5z M27.9,5.1
							c0.9,0,1.6,0.7,1.6,1.6s-0.7,1.6-1.6,1.6s-1.6-0.7-1.6-1.6S27,5.1,27.9,5.1z M14.4,25.1c0.9,0,1.6,0.7,1.6,1.6
							s-0.7,1.6-1.6,1.6c-0.9,0-1.6-0.7-1.6-1.6C12.8,25.8,13.5,25.1,14.4,25.1z M5.2,16.4l6.1,8.1c-0.5,0.6-0.7,1.4-0.7,2.3
							c0,2.1,1.7,3.8,3.8,3.8s3.8-1.7,3.8-3.8c0-0.9-0.3-1.7-0.8-2.3l9.2-14.1c0.4,0.1,0.7,0.2,1.1,0.2c0.2,0,0.4,0,0.5,0l6,15.3
							l-5.9,14.3c-0.1,0-0.3,0-0.4,0c-1.4,0-2.7,0.8-3.3,2l-6.3-1.6c-0.2-1.9-1.8-3.4-3.8-3.4c-2.1,0-3.8,1.7-3.8,3.8
							c0,0.7,0.2,1.3,0.5,1.8l-6,6.7V16.4z"/>
						<path class="st0" d="M53.4,29.8c-0.4-0.4-1.1-0.4-1.6,0L51,30.7c-0.4,0.4-0.4,1.1,0,1.6c0.2,0.2,0.5,0.3,0.8,0.3
							s0.6-0.1,0.8-0.3l0.9-0.9C53.9,30.9,53.9,30.2,53.4,29.8z"/>
					</g>
				</g>
			</g>
		</g>
	</g>
</g>
</svg>
