<?xml version="1.0" encoding="utf-8"?>
<!-- Generator: Adobe Illustrator 23.1.0, SVG Export Plug-In . SVG Version: 6.00 Build 0)  -->
<svg version="1.1" id="Layer_1" xmlns="http://www.w3.org/2000/svg" xmlns:xlink="http://www.w3.org/1999/xlink" x="0px" y="0px"
	 viewBox="0 0 56 49" style="enable-background:new 0 0 56 49;" xml:space="preserve">
<style type="text/css">
	.st0{fill:none;}
	.st1{fill:#132B3F;}
</style>
<title>bar-chart</title>
<desc>Created with Sketch.</desc>
<g id="Services" transform="translate(160.000000, 2600.000000)">
	<g transform="translate(854.000000, 454.000000)">
		<g id="bar-chart" transform="translate(240.000000, 45.000000)">
			<rect id="Rectangle" x="-1254" y="-3103" class="st0" width="56" height="56"/>
			<g id="Shape" transform="translate(0.000000, 4.000000)">
				<path class="st1" d="M-1199.3-3056.7h-53.4c-0.7,0-1.3,0.6-1.3,1.3s0.6,1.3,1.3,1.3h53.4c0.7,0,1.3-0.6,1.3-1.3
					S-1198.6-3056.7-1199.3-3056.7z"/>
				<path class="st1" d="M-1202.8-3096.8h-9.3c-0.7,0-1.3,0.6-1.3,1.3v9h-6.6v-15.2c0-0.7-0.6-1.3-1.3-1.3h-9.3
					c-0.7,0-1.3,0.6-1.3,1.3v24.9h-6.6v-11.2c0-0.7-0.6-1.3-1.3-1.3h-9.3c-0.7,0-1.3,0.6-1.3,1.3v25.2c0,0.7,0.6,1.3,1.3,1.3h9.3
					h9.3h9.3h9.3h9.3c0.7,0,1.3-0.6,1.3-1.3v-32.7C-1201.4-3096.2-1202-3096.8-1202.8-3096.8z M-1241.3-3064h-6.6v-22.6h6.6V-3064z
					 M-1232-3064h-6.6v-10.1h6.6V-3064z M-1222.7-3085.2v21.1h-6.6v-36.3h6.6V-3085.2z M-1213.4-3064h-6.6v-19.8h6.6V-3064z
					 M-1204.1-3064h-6.6v-21.1v-9h6.6L-1204.1-3064L-1204.1-3064z"/>
			</g>
		</g>
	</g>
</g>
</svg>
