<svg id="Layer_5" enable-background="new 0 0 64 64" height="512" viewBox="0 0 64 64" width="512" xmlns="http://www.w3.org/2000/svg"><g><g><g><path d="m62 4v10h-60v-10c0-1.1.9-2 2-2h56c1.1 0 2 .9 2 2z" fill="#5cd6b3"/></g><g><path d="m30 44-1 4h-10v-8.18c2.34-.43 4.43-1.61 6-3.28v.5c0 2.46 1.29 4.73 3.4 6z" fill="#ffeaa7"/></g><g><path d="m2 14v34c0 1.1.9 2 2 2h56c1.1 0 2-.9 2-2v-2-32z" fill="#ffeaa7"/></g><g><path d="m42 6h16v4h-16z" fill="#e6e9ed"/></g><g><path d="m22 6h4v4h-4z" fill="#e6e9ed"/></g><g><path d="m14 6h4v4h-4z" fill="#e6e9ed"/></g><g><path d="m6 6h4v4h-4z" fill="#e6e9ed"/></g><g><path d="m17 18c6.08 0 11 4.92 11 11h-11z" fill="#e6e9ed"/></g><g><path d="m17 18v11l-1 1c-1.66 0-3 1.34-3 3l-3.77 3.77c-2-1.98-3.23-4.73-3.23-7.77 0-6.08 4.92-11 11-11z" fill="#ff826e"/></g><g><path d="m13 38v1.25c-1.43-.56-2.71-1.4-3.77-2.48l3.77-3.77z" fill="#5cd6b3"/></g><g><path d="m17 29h11c0 .38-.02.75-.06 1.12l.01.02v.01c-1.7.45-2.95 2-2.95 3.85v2.54c-1.57 1.67-3.66 2.85-6 3.28v-1.82l1.41-1.41c.38-.38.59-.89.59-1.42v-.17c0-.55-.22-1.05-.59-1.41-.36-.37-.86-.59-1.41-.59.01-1.65-1.32-3-2.97-3h-.03z" fill="#5cd6b3"/></g><g><path d="m20.41 33.59c.37.36.59.86.59 1.41v.17c0 .53-.21 1.04-.59 1.42l-1.41 1.41h-6v-5c0-1.66 1.34-3 3-3h.03c1.65 0 2.98 1.35 2.97 3 .55 0 1.05.22 1.41.59z" fill="#f0d0b4"/></g><g><path d="m39 62h-14v-8l-7.42-.62c-2.03-.16-3.7-1.54-4.31-3.38-.18-.5-.27-1.04-.27-1.6v-9.15-1.25h6v1.82 8.18h10 6 4c1.77 0 3.37.77 4.47 2 .95 1.06 1.53 2.46 1.53 4v8z" fill="#4fc1e9"/></g><g><path d="m34 44 1 4h-6l1-4z" fill="#3bafda"/></g><g><path d="m25 36.54v-2.54c0-1.85 1.25-3.4 2.95-3.85v-.01c.33-.09.69-.14 1.05-.14h3 3c2.21 0 4 1.79 4 4v3.04c0 2.46-1.29 4.73-3.4 6l-1.6.96h-4l-1.6-.96c-2.11-1.27-3.4-3.54-3.4-6z" fill="#b27946"/></g></g><g><path d="m60 1h-56c-1.654 0-3 1.346-3 3v44c0 1.654 1.346 3 3 3h8.629c.906 1.848 2.716 3.198 4.873 3.378l6.498.542v8.08h22v-9c0-1.074-.251-2.089-.685-3h14.685c1.654 0 3-1.346 3-3v-44c0-1.654-1.346-3-3-3zm-56 2h56c.552 0 1 .448 1 1v9h-58v-9c0-.552.448-1 1-1zm20 31v2.13c-1.127 1.104-2.505 1.929-4 2.402v-.118l1.121-1.121c.567-.566.879-1.32.879-2.121v-.172c0-1.336-.877-2.471-2.086-2.857-.156-.738-.521-1.417-1.065-1.967-.066-.066-.143-.115-.212-.176h7.395c-1.226.912-2.032 2.359-2.032 4zm-7.973-3c.53 0 1.027.207 1.4.584.374.377.577.877.572 1.407l-.008 1.009h1.009c.552 0 1 .448 1 1v.172c0 .263-.106.521-.293.707l-1.121 1.121h-4.586v-4c0-1.103.897-2 2.027-2zm3.973 9.616c1.505-.39 2.926-1.079 4.174-2.01.442 2.18 1.771 4.128 3.709 5.29l.967.58-.63 2.524h-8.22zm10.78 4.384h2.439l.5 2h-3.439zm2.943-2h-3.445l-1.364-.818c-1.798-1.078-2.914-3.049-2.914-5.145v-3.037c0-1.654 1.346-3 3-3h6c1.654 0 3 1.346 3 3v3.037c0 2.096-1.116 4.066-2.913 5.145zm-15.723-15v-8.949c4.717.471 8.479 4.232 8.949 8.949zm-2 .586-.461.461c-1.834.214-3.279 1.659-3.493 3.493l-2.796 2.796c-1.427-1.744-2.25-3.958-2.25-6.336 0-5.176 3.954-9.446 9-9.949zm-4 6.828v2.251c-.473-.271-.917-.58-1.333-.918zm32 25.586h-4v-8h-2v8h-12v-7.92l-8.332-.694c-2.057-.172-3.668-1.923-3.668-3.987v-9.399h4v8.382l-1.447.724.895 1.789 1.788-.895h19.764c2.757 0 5 2.243 5 5zm16-12h-16.111c-1.263-1.235-2.988-2-4.889-2h-3.22l-.631-2.523.967-.58c2.396-1.437 3.884-4.066 3.884-6.86v-3.037c0-2.757-2.243-5-5-5h-6c0-6.617-5.383-12-12-12s-12 5.383-12 12c0 4.748 2.727 8.952 7 10.905v8.494c0 .205.037.401.058.601h-8.058c-.552 0-1-.448-1-1v-33h58v33c0 .552-.448 1-1 1z"/><path d="m11 5h-6v6h6zm-2 4h-2v-2h2z"/><path d="m19 5h-6v6h6zm-2 4h-2v-2h2z"/><path d="m27 5h-6v6h6zm-2 4h-2v-2h2z"/><path d="m59 5h-18v6h18zm-2 4h-14v-2h14z"/><path d="m57 31h-2v14h-2v-8h-2v8h-2v-12h-2v12h-2v-16h-2v18h16v-2h-2z"/><path d="m43 17h16v2h-16z"/><path d="m43 21h2v2h-2z"/><path d="m47 21h12v2h-12z"/><path d="m43 25h16v2h-16z"/></g></g></svg>